<svg xmlns="http://www.w3.org/2000/svg" width="1932" height="828" viewBox="0 0 1932 828" role="img" aria-label="Winter Ski Rush horizontal thumbnail">
  <defs>
    <linearGradient id="bg" x1="0" y1="0" x2="1" y2="0">
      <stop offset="0%" stop-color="#122f52"/>
      <stop offset="52%" stop-color="#24598a"/>
      <stop offset="100%" stop-color="#d7eafb"/>
    </linearGradient>
    <linearGradient id="leftGlow" x1="0" y1="0" x2="1" y2="1">
      <stop offset="0%" stop-color="#1b436f" stop-opacity="0.96"/>
      <stop offset="100%" stop-color="#173659" stop-opacity="0.72"/>
    </linearGradient>
    <linearGradient id="snowTrail" x1="0" y1="0" x2="0" y2="1">
      <stop offset="0%" stop-color="#f7fbff"/>
      <stop offset="100%" stop-color="#e7f1fc"/>
    </linearGradient>
    <linearGradient id="snowEdge" x1="0" y1="0" x2="0" y2="1">
      <stop offset="0%" stop-color="#d5e8fb"/>
      <stop offset="100%" stop-color="#bdd8f2"/>
    </linearGradient>
    <radialGradient id="burst" cx="50%" cy="45%" r="55%">
      <stop offset="0%" stop-color="#ffffff" stop-opacity="0.26"/>
      <stop offset="100%" stop-color="#ffffff" stop-opacity="0"/>
    </radialGradient>
    <filter id="shadow" x="-20%" y="-20%" width="140%" height="140%">
      <feDropShadow dx="0" dy="14" stdDeviation="18" flood-color="#0d2139" flood-opacity="0.24"/>
    </filter>
  </defs>

  <rect width="1932" height="828" fill="url(#bg)"/>
  <rect width="1932" height="828" fill="url(#burst)"/>

  <path
    d="M0 0
       H960
       C900 160, 840 290, 742 414
       C644 536, 524 646, 340 828
       H0 Z"
    fill="url(#leftGlow)"
  />

  <g fill="#d2ebff" opacity="0.34">
    <circle cx="142" cy="96" r="5"/>
    <circle cx="254" cy="152" r="4"/>
    <circle cx="372" cy="88" r="6"/>
    <circle cx="524" cy="196" r="4"/>
    <circle cx="692" cy="126" r="5"/>
    <circle cx="1296" cy="120" r="6"/>
    <circle cx="1530" cy="104" r="4"/>
    <circle cx="1768" cy="162" r="5"/>
    <circle cx="1622" cy="248" r="4"/>
    <circle cx="1160" cy="236" r="5"/>
  </g>

  <path
    d="M1180 0
       C1120 86, 1086 198, 1096 276
       C1108 366, 1178 438, 1212 512
       C1256 610, 1274 714, 1288 828
       H1882
       C1858 682, 1818 566, 1780 458
       C1730 314, 1722 188, 1730 0 Z"
    fill="url(#snowTrail)"
  />

  <path
    d="M1198 0
       C1148 88, 1118 192, 1130 268
       C1144 360, 1216 430, 1252 504
       C1294 592, 1316 700, 1328 828"
    fill="none"
    stroke="#dcecfb"
    stroke-width="12"
    stroke-linecap="round"
    opacity="0.95"
  />

  <path
    d="M1710 0
       C1700 150, 1702 264, 1738 382
       C1776 500, 1834 638, 1866 828"
    fill="none"
    stroke="url(#snowEdge)"
    stroke-width="12"
    stroke-linecap="round"
    opacity="0.9"
  />

  <path
    d="M1188 0
       C1140 78, 1110 176, 1118 268
       C1126 360, 1192 432, 1230 520
       C1266 604, 1286 704, 1296 828"
    fill="none"
    stroke="#b6d1ef"
    stroke-width="4"
    stroke-linecap="round"
    opacity="0.65"
  />

  <path
    d="M1718 0
       C1710 154, 1716 266, 1752 386
       C1788 506, 1840 642, 1878 828"
    fill="none"
    stroke="#b0cdea"
    stroke-width="4"
    stroke-linecap="round"
    opacity="0.65"
  />

  <g fill="#9fc3ea" opacity="0.95">
    <circle cx="1458" cy="98" r="18"/>
    <circle cx="1454" cy="232" r="20"/>
    <circle cx="1560" cy="340" r="21"/>
    <circle cx="1556" cy="494" r="21"/>
    <circle cx="1644" cy="642" r="22"/>
    <circle cx="1706" cy="768" r="22"/>
  </g>

  <g transform="translate(1450 252) scale(2.8)" filter="url(#shadow)">
    <ellipse cx="0" cy="26" rx="28" ry="12" fill="#7c97b4" opacity="0.22"/>
    <circle cx="0" cy="-10" r="9" fill="#eef7ff"/>
    <circle cx="0" cy="-10" r="4" fill="#f7fbff" opacity="0.82"/>
    <circle cx="0" cy="12" r="20" fill="#9ca6b6"/>
    <path d="M0 -24 L21 27 L-21 27 Z" fill="#f7bb58"/>
    <rect x="-31" y="32" width="62" height="6" rx="3" fill="#bfe0ff" transform="rotate(10)"/>
    <rect x="-29" y="42" width="62" height="6" rx="3" fill="#a8d2ff" transform="rotate(10)"/>
  </g>

  <path
    d="M1450 136
       C1470 188, 1470 222, 1438 252"
    fill="none"
    stroke="#f6fbff"
    stroke-width="22"
    stroke-linecap="round"
    opacity="0.24"
  />

  <g transform="translate(1716 650) scale(2.3)" filter="url(#shadow)">
    <rect x="-5" y="22" width="10" height="30" fill="#8a5a37"/>
    <path d="M0 -28 L-24 20 L24 20 Z" fill="#43a55d"/>
    <path d="M0 -12 L-20 28 L20 28 Z" fill="#368f50"/>
  </g>

  <g transform="translate(246 214)">
    <text x="0" y="0" fill="#eef8ff" font-family="Avenir Next, Pretendard, Apple SD Gothic Neo, sans-serif" font-size="72" font-weight="700" letter-spacing="10">WINTER</text>
    <text x="0" y="122" fill="#ffffff" font-family="Avenir Next, Pretendard, Apple SD Gothic Neo, sans-serif" font-size="136" font-weight="900" letter-spacing="2">SKI RUSH</text>
    <rect x="4" y="166" width="332" height="8" rx="4" fill="#7fbeff" opacity="0.9"/>
    <text x="0" y="252" fill="#d8edff" font-family="Avenir Next, Pretendard, Apple SD Gothic Neo, sans-serif" font-size="42" font-weight="700" letter-spacing="0.8">Arcade downhill slalom action.</text>
  </g>

  <g opacity="0.88">
    <path d="M258 676 L648 676" stroke="#8dc9ff" stroke-width="20" stroke-linecap="round"/>
    <path d="M284 662 C374 614, 446 554, 520 478 C576 420, 624 378, 668 334" fill="none" stroke="#d5edff" stroke-width="8" stroke-linecap="round" stroke-dasharray="1 26"/>
    <circle cx="520" cy="478" r="9" fill="#dff0ff"/>
    <circle cx="668" cy="334" r="9" fill="#dff0ff"/>
    <circle cx="402" cy="590" r="9" fill="#dff0ff"/>
  </g>
</svg>
