<svg xmlns="http://www.w3.org/2000/svg" width="1932" height="828" viewBox="0 0 1932 828" role="img" aria-label="Zigzag Memory Run horizontal thumbnail">
  <defs>
    <linearGradient id="bg" x1="82" y1="34" x2="1766" y2="828" gradientUnits="userSpaceOnUse">
      <stop offset="0%" stop-color="#152b46"/>
      <stop offset="56%" stop-color="#10233c"/>
      <stop offset="100%" stop-color="#091523"/>
    </linearGradient>
    <radialGradient id="glow-left" cx="0" cy="0" r="1" gradientUnits="userSpaceOnUse" gradientTransform="translate(426 246) rotate(90) scale(420 520)">
      <stop offset="0%" stop-color="#234a70" stop-opacity="0.48"/>
      <stop offset="100%" stop-color="#234a70" stop-opacity="0"/>
    </radialGradient>
    <radialGradient id="glow-right" cx="0" cy="0" r="1" gradientUnits="userSpaceOnUse" gradientTransform="translate(1454 468) rotate(90) scale(360 480)">
      <stop offset="0%" stop-color="#12364d" stop-opacity="0.4"/>
      <stop offset="100%" stop-color="#12364d" stop-opacity="0"/>
    </radialGradient>
    <radialGradient id="vignette" cx="0" cy="0" r="1" gradientUnits="userSpaceOnUse" gradientTransform="translate(966 414) rotate(90) scale(520 1200)">
      <stop offset="68%" stop-color="#000000" stop-opacity="0"/>
      <stop offset="100%" stop-color="#040b13" stop-opacity="0.46"/>
    </radialGradient>
    <linearGradient id="panel" x1="112" y1="154" x2="800" y2="720" gradientUnits="userSpaceOnUse">
      <stop offset="0%" stop-color="#10263f" stop-opacity="0.9"/>
      <stop offset="100%" stop-color="#091726" stop-opacity="0.82"/>
    </linearGradient>
    <linearGradient id="path-core" x1="1184" y1="370" x2="1604" y2="644" gradientUnits="userSpaceOnUse">
      <stop offset="0%" stop-color="#72f8d9"/>
      <stop offset="100%" stop-color="#84ffe8"/>
    </linearGradient>
    <filter id="panel-shadow" x="-10%" y="-10%" width="120%" height="120%">
      <feDropShadow dx="0" dy="28" stdDeviation="28" flood-color="#03070d" flood-opacity="0.34"/>
    </filter>
    <filter id="path-shadow" x="-15%" y="-20%" width="140%" height="150%">
      <feDropShadow dx="0" dy="22" stdDeviation="20" flood-color="#05101b" flood-opacity="0.48"/>
    </filter>
    <filter id="mint-glow" x="-25%" y="-25%" width="160%" height="160%">
      <feDropShadow dx="0" dy="0" stdDeviation="18" flood-color="#74f7d4" flood-opacity="0.34"/>
    </filter>
    <filter id="ring-glow" x="-40%" y="-40%" width="180%" height="180%">
      <feDropShadow dx="0" dy="0" stdDeviation="12" flood-color="#68edd2" flood-opacity="0.28"/>
    </filter>
    <filter id="node-shadow" x="-40%" y="-40%" width="180%" height="180%">
      <feDropShadow dx="0" dy="16" stdDeviation="16" flood-color="#04101a" flood-opacity="0.44"/>
    </filter>
    <pattern id="grid" width="116" height="116" patternUnits="userSpaceOnUse">
      <path d="M116 0H0V116" fill="none" stroke="#2c4b67" stroke-width="4"/>
    </pattern>
  </defs>

  <rect width="1932" height="828" fill="url(#bg)"/>
  <rect width="1932" height="828" fill="url(#glow-left)"/>
  <rect width="1932" height="828" fill="url(#glow-right)"/>
  <rect width="1932" height="828" fill="url(#grid)" opacity="0.28"/>
  <rect x="1292" width="6" height="828" fill="#62d7c2" opacity="0.22"/>
  <rect x="1290" width="12" height="828" fill="#62d7c2" opacity="0.06"/>

  <g opacity="0.18">
    <circle cx="188" cy="118" r="18" fill="#d6efff"/>
    <circle cx="266" cy="88" r="8" fill="#d6efff"/>
    <circle cx="1616" cy="144" r="10" fill="#d6efff"/>
    <circle cx="1762" cy="102" r="12" fill="#d6efff"/>
  </g>

  <g filter="url(#panel-shadow)">
    <rect x="96" y="132" width="820" height="564" rx="44" fill="url(#panel)"/>
    <rect x="96" y="132" width="820" height="564" rx="44" fill="none" stroke="#79bfe6" stroke-opacity="0.14" stroke-width="4"/>
  </g>

  <text x="158" y="236" fill="#88c6e9" font-family="Avenir Next, Noto Sans KR, Apple SD Gothic Neo, sans-serif" font-size="44" font-weight="700" letter-spacing="8">MEMORY PUZZLE</text>
  <text x="152" y="372" fill="#f3fbff" font-family="Avenir Next, Noto Sans KR, Apple SD Gothic Neo, sans-serif" font-size="112" font-weight="800">Zigzag</text>
  <text x="152" y="488" fill="#f3fbff" font-family="Avenir Next, Noto Sans KR, Apple SD Gothic Neo, sans-serif" font-size="112" font-weight="800">Memory Run</text>
  <text x="158" y="592" fill="#c4d9ea" font-family="Avenir Next, Noto Sans KR, Apple SD Gothic Neo, sans-serif" font-size="42" font-weight="500">Remember the route. Tap the same zigzag back.</text>

  <g opacity="0.82">
    <rect x="158" y="630" width="210" height="64" rx="32" fill="#16304c"/>
    <rect x="158" y="630" width="210" height="64" rx="32" fill="none" stroke="#74f7d4" stroke-opacity="0.28" stroke-width="3"/>
    <circle cx="198" cy="662" r="10" fill="#74f7d4"/>
    <text x="226" y="676" fill="#e5fbff" font-family="Avenir Next, Noto Sans KR, Apple SD Gothic Neo, sans-serif" font-size="30" font-weight="700">FAST ROUNDS</text>
  </g>

  <path d="M1128 364L1294 506L1602 670" stroke="#07121f" stroke-width="54" stroke-linecap="round" filter="url(#path-shadow)" opacity="0.46"/>

  <g filter="url(#mint-glow)">
    <path d="M1128 364L1294 506L1602 670" stroke="url(#path-core)" stroke-width="34" stroke-linecap="round" stroke-linejoin="round"/>
    <path d="M1128 364L1294 506L1602 670" stroke="#b9fff0" stroke-width="14" stroke-linecap="round" stroke-linejoin="round" opacity="0.82"/>
  </g>

  <g filter="url(#ring-glow)">
    <circle cx="1302" cy="246" r="66" fill="none" stroke="#5addc8" stroke-width="18" opacity="0.94"/>
    <circle cx="1302" cy="246" r="88" fill="none" stroke="#5addc8" stroke-width="4" opacity="0.14"/>
  </g>

  <g filter="url(#node-shadow)">
    <circle cx="1128" cy="364" r="34" fill="#ffd479"/>
    <circle cx="1294" cy="506" r="34" fill="#ffd479"/>
    <circle cx="1602" cy="670" r="38" fill="#ffd479"/>
  </g>

  <circle cx="1128" cy="364" r="14" fill="#ffe7aa" opacity="0.72"/>
  <circle cx="1294" cy="506" r="14" fill="#ffe7aa" opacity="0.72"/>
  <circle cx="1602" cy="670" r="16" fill="#ffe7aa" opacity="0.72"/>

  <g opacity="0.14" fill="#84ffe8">
    <circle cx="1712" cy="262" r="22"/>
    <circle cx="1776" cy="318" r="16"/>
    <circle cx="1832" cy="374" r="12"/>
  </g>

  <path d="M1128 364L1294 506L1602 670" stroke="#e2fff5" stroke-width="4" stroke-linecap="round" stroke-linejoin="round" opacity="0.22"/>
  <rect width="1932" height="828" fill="url(#vignette)"/>
</svg>
