<?xml version="1.0" encoding="UTF-8"?>
<svg xmlns="http://www.w3.org/2000/svg" viewBox="0 0 640 360" role="img" aria-label="수달아이스팝 썸네일">
  <defs>
    <linearGradient id="bg" x1="0" y1="0" x2="1" y2="1">
      <stop offset="0%" stop-color="#eafcff"/>
      <stop offset="55%" stop-color="#8ddcf4"/>
      <stop offset="100%" stop-color="#51b6df"/>
    </linearGradient>
    <radialGradient id="glow" cx="0.52" cy="0.28" r="0.7">
      <stop offset="0%" stop-color="#fffdf2" stop-opacity="0.92"/>
      <stop offset="100%" stop-color="#fffdf2" stop-opacity="0"/>
    </radialGradient>
    <linearGradient id="panel" x1="0" y1="0" x2="1" y2="1">
      <stop offset="0%" stop-color="#ffffff" stop-opacity="0.9"/>
      <stop offset="100%" stop-color="#d9f6ff" stop-opacity="0.72"/>
    </linearGradient>
  </defs>

  <rect width="640" height="360" fill="url(#bg)"/>
  <rect width="640" height="360" fill="url(#glow)"/>

  <g fill="#ffffff" fill-opacity="0.22">
    <circle cx="74" cy="58" r="14"/>
    <circle cx="118" cy="40" r="6"/>
    <circle cx="162" cy="62" r="10"/>
    <circle cx="530" cy="72" r="8"/>
    <circle cx="564" cy="56" r="5"/>
    <circle cx="576" cy="98" r="9"/>
  </g>

  <g transform="translate(82 58)">
    <rect x="86" y="70" width="140" height="180" rx="28" fill="url(#panel)"/>
    <circle cx="156" cy="76" r="36" fill="#fff9ef"/>
    <circle cx="136" cy="62" r="12" fill="#fff9ef"/>
    <circle cx="176" cy="62" r="12" fill="#fff9ef"/>
    <circle cx="147" cy="76" r="4" fill="#43566e"/>
    <circle cx="165" cy="76" r="4" fill="#43566e"/>
    <path d="M149 88Q156 95 163 88" fill="none" stroke="#43566e" stroke-width="4" stroke-linecap="round"/>
    <circle cx="126" cy="96" r="7" fill="#ff9fba"/>
    <circle cx="186" cy="96" r="7" fill="#ff9fba"/>

    <rect x="140" y="138" width="32" height="78" rx="16" fill="#d99a6d"/>
    <rect x="116" y="126" width="80" height="20" rx="10" fill="#fff7cf"/>
    <rect x="118" y="116" width="76" height="18" rx="9" fill="#8ad7ff"/>
    <rect x="118" y="98" width="76" height="18" rx="9" fill="#ff8bb3"/>
    <rect x="121" y="80" width="70" height="18" rx="9" fill="#ffe07f"/>
    <circle cx="152" cy="55" r="14" fill="#fff7cf"/>
    <circle cx="152" cy="55" r="6" fill="#ffffff" fill-opacity="0.72"/>
  </g>

  <g transform="translate(30 256)">
    <rect x="0" y="18" width="580" height="74" rx="18" fill="rgba(6,38,58,0.28)"/>
    <text x="24" y="60" fill="#07324d" font-family="Arial, sans-serif" font-size="36" font-weight="700">수달아이스팝</text>
    <text x="24" y="88" fill="#0c4d73" font-family="Arial, sans-serif" font-size="18">원탭 타이밍 게임</text>
  </g>

  <g fill="#ffffff" fill-opacity="0.55">
    <circle cx="472" cy="128" r="9"/>
    <circle cx="506" cy="150" r="5"/>
    <circle cx="442" cy="176" r="7"/>
  </g>
</svg>
