<?xml version="1.0" encoding="UTF-8"?>
<svg xmlns="http://www.w3.org/2000/svg" viewBox="0 0 640 360" role="img" aria-label="Team Board thumbnail">
  <rect width="640" height="360" fill="#0f1423"/>
  <rect x="24" y="36" width="592" height="72" rx="12" fill="#1a2438"/>
  <rect x="40" y="52" width="140" height="16" rx="8" fill="#7dd3ff"/>
  <rect x="40" y="78" width="220" height="10" rx="5" fill="#8aa2c5"/>

  <g fill="#141d31" stroke="#2b3b5a">
    <rect x="24" y="130" width="140" height="190" rx="12"/>
    <rect x="180" y="130" width="140" height="190" rx="12"/>
    <rect x="336" y="130" width="140" height="190" rx="12"/>
    <rect x="492" y="130" width="124" height="190" rx="12"/>
  </g>

  <g fill="#1b2740">
    <rect x="36" y="156" width="116" height="38" rx="10"/>
    <rect x="36" y="204" width="116" height="38" rx="10"/>
    <rect x="36" y="252" width="116" height="38" rx="10"/>
  </g>

  <rect x="22" y="300" width="596" height="44" rx="10" fill="#050916" fill-opacity="0.45"/>
  <text x="40" y="330" fill="#f4f9ff" font-family="Arial, sans-serif" font-weight="700" font-size="26">팀원관리</text>
  <text x="160" y="330" fill="#d1ddf6" font-family="Arial, sans-serif" font-size="18">Trello-style UI</text>
</svg>
