<svg xmlns="http://www.w3.org/2000/svg" width="600" height="600" viewBox="0 0 600 600" role="img" aria-label="Winter Ski Rush app logo">
  <defs>
    <linearGradient id="bg" x1="0" y1="0" x2="0" y2="1">
      <stop offset="0%" stop-color="#d4e8fb"/>
      <stop offset="100%" stop-color="#c5dcf4"/>
    </linearGradient>
    <linearGradient id="slope" x1="0" y1="0" x2="0" y2="1">
      <stop offset="0%" stop-color="#eef6ff"/>
      <stop offset="100%" stop-color="#e7f1fc"/>
    </linearGradient>
    <filter id="shadow" x="-20%" y="-20%" width="140%" height="140%">
      <feDropShadow dx="0" dy="6" stdDeviation="10" flood-color="#7da8d2" flood-opacity="0.18"/>
    </filter>
  </defs>

  <rect width="600" height="600" fill="url(#bg)"/>

  <path
    d="M80 0
       C70 110, 72 182, 92 248
       C109 308, 108 379, 128 460
       C139 507, 151 552, 164 600
       L554 600
       C544 532, 527 474, 513 421
       C495 355, 486 281, 499 210
       C509 154, 513 96, 487 42
       L465 0 Z"
    fill="url(#slope)"
  />

  <path
    d="M94 0
       C85 103, 88 173, 108 237
       C122 286, 121 352, 140 435
       C151 482, 163 535, 176 600"
    fill="none"
    stroke="#d9e9fa"
    stroke-width="6"
    stroke-linecap="round"
    opacity="0.95"
  />

  <path
    d="M489 0
       C500 43, 506 96, 497 156
       C487 226, 493 299, 509 370
       C523 433, 540 514, 550 600"
    fill="none"
    stroke="#d7e8fb"
    stroke-width="6"
    stroke-linecap="round"
    opacity="0.95"
  />

  <g fill="#a8c9ef" opacity="0.95">
    <circle cx="292" cy="44" r="9"/>
    <circle cx="292" cy="148" r="10"/>
    <circle cx="342" cy="233" r="10"/>
    <circle cx="345" cy="355" r="10"/>
    <circle cx="356" cy="482" r="10"/>
    <circle cx="399" cy="572" r="10"/>
  </g>

  <g transform="translate(292 188) scale(1.15)" filter="url(#shadow)">
    <ellipse cx="0" cy="24" rx="28" ry="12" fill="#8aa1bb" opacity="0.2"/>
    <circle cx="0" cy="-8" r="9" fill="#eef7ff"/>
    <circle cx="0" cy="-8" r="4" fill="#f7fbff" opacity="0.8"/>
    <circle cx="0" cy="12" r="20" fill="#99a4b4"/>
    <path d="M0 -23 L20 26 L-20 26 Z" fill="#f7bb58"/>
    <rect x="-29" y="30" width="58" height="6" rx="3" fill="#bfe0ff" transform="rotate(10)"/>
    <rect x="-27" y="40" width="58" height="6" rx="3" fill="#a7d1ff" transform="rotate(10)"/>
  </g>

  <g transform="translate(442 470)" filter="url(#shadow)">
    <rect x="-4" y="18" width="8" height="22" fill="#8b5d39"/>
    <path d="M0 -20 L-20 18 L20 18 Z" fill="#3f9a58"/>
    <path d="M0 -8 L-17 24 L17 24 Z" fill="#36904f"/>
  </g>

  <path
    d="M298 120
       C303 132, 304 146, 294 158"
    fill="none"
    stroke="#f6fbff"
    stroke-width="9"
    stroke-linecap="round"
    opacity="0.55"
  />
</svg>
