<svg xmlns="http://www.w3.org/2000/svg" width="1932" height="828" viewBox="0 0 1932 828">
  <defs>
    <linearGradient id="bg" x1="0" y1="0" x2="1" y2="1">
      <stop offset="0" stop-color="#121b2c" />
      <stop offset="1" stop-color="#070d15" />
    </linearGradient>
    <radialGradient id="leftGlow" cx="0.12" cy="0.1" r="0.5">
      <stop offset="0" stop-color="#ffbe7d" stop-opacity="0.56" />
      <stop offset="1" stop-color="#ffbe7d" stop-opacity="0" />
    </radialGradient>
    <radialGradient id="rightGlow" cx="0.88" cy="0.12" r="0.52">
      <stop offset="0" stop-color="#7be9ff" stop-opacity="0.52" />
      <stop offset="1" stop-color="#7be9ff" stop-opacity="0" />
    </radialGradient>
    <linearGradient id="gateA" x1="0" y1="0" x2="1" y2="0">
      <stop offset="0" stop-color="#ffd39b" />
      <stop offset="1" stop-color="#ffaf62" />
    </linearGradient>
    <linearGradient id="gateB" x1="0" y1="0" x2="1" y2="0">
      <stop offset="0" stop-color="#c8f7ff" />
      <stop offset="1" stop-color="#70dcff" />
    </linearGradient>
  </defs>

  <rect width="1932" height="828" fill="url(#bg)" />
  <rect width="1932" height="828" fill="url(#leftGlow)" />
  <rect width="1932" height="828" fill="url(#rightGlow)" />

  <g opacity="0.17" stroke="#d8e3f2" stroke-width="2">
    <path d="M0 120H1932" />
    <path d="M0 180H1932" />
    <path d="M0 240H1932" />
    <path d="M0 300H1932" />
    <path d="M0 360H1932" />
    <path d="M0 420H1932" />
    <path d="M0 480H1932" />
    <path d="M0 540H1932" />
    <path d="M0 600H1932" />
    <path d="M0 660H1932" />
    <path d="M0 720H1932" />
  </g>

  <rect x="286" y="174" width="1360" height="88" rx="34" fill="url(#gateA)" />
  <rect x="330" y="198" width="1272" height="40" rx="20" fill="#101f35" opacity="0.72" />

  <rect x="350" y="356" width="1232" height="88" rx="34" fill="url(#gateB)" opacity="0.38" />
  <rect x="396" y="380" width="1140" height="40" rx="20" fill="#10273e" opacity="0.56" />

  <g>
    <rect x="706" y="534" width="520" height="132" rx="42" fill="url(#gateB)" />
    <rect x="756" y="560" width="420" height="80" rx="30" fill="#111e30" />
    <circle cx="848" cy="600" r="28" fill="#ffc27d" />
    <circle cx="1088" cy="600" r="28" fill="#72e8ff" />
    <circle cx="848" cy="600" r="12" fill="#101a2a" />
    <circle cx="1088" cy="600" r="12" fill="#101a2a" />
    <rect x="944" y="578" width="48" height="44" rx="9" fill="#ebf5ff" opacity="0.92" />
  </g>

  <text x="120" y="178" font-size="56" fill="#dce9f7" font-family="Avenir Next, SF Pro Display, sans-serif" font-weight="700" letter-spacing="6">CASSETTE A/B WORLD</text>
  <text x="120" y="250" font-size="40" fill="#95aac5" font-family="Avenir Next, SF Pro Display, sans-serif" font-weight="500" letter-spacing="3">59-SECOND SWITCH RUNNER</text>
</svg>
