<svg xmlns="http://www.w3.org/2000/svg" width="1932" height="828" viewBox="0 0 1932 828" role="img" aria-labelledby="title desc">
  <title id="title">Real Estate Watch horizontal thumbnail</title>
  <desc id="desc">A warm editorial banner for the Seoul and Gyeonggi real estate watch app.</desc>
  <defs>
    <linearGradient id="bg" x1="0" y1="0" x2="1" y2="1">
      <stop offset="0%" stop-color="#eee1cf" />
      <stop offset="52%" stop-color="#f8f2e9" />
      <stop offset="100%" stop-color="#efdbb9" />
    </linearGradient>
    <radialGradient id="leftGlow" cx="0" cy="0" r="1" gradientUnits="userSpaceOnUse" gradientTransform="translate(226 120) rotate(28) scale(420 420)">
      <stop offset="0%" stop-color="#0f6c6d" stop-opacity="0.18" />
      <stop offset="100%" stop-color="#0f6c6d" stop-opacity="0" />
    </radialGradient>
    <radialGradient id="rightGlow" cx="0" cy="0" r="1" gradientUnits="userSpaceOnUse" gradientTransform="translate(1710 170) rotate(90) scale(340 340)">
      <stop offset="0%" stop-color="#d7965d" stop-opacity="0.32" />
      <stop offset="100%" stop-color="#d7965d" stop-opacity="0" />
    </radialGradient>
    <linearGradient id="panel" x1="0" y1="0" x2="1" y2="1">
      <stop offset="0%" stop-color="#fff8ee" />
      <stop offset="100%" stop-color="#f8ead6" />
    </linearGradient>
    <linearGradient id="accent" x1="0" y1="0" x2="1" y2="1">
      <stop offset="0%" stop-color="#cf8750" />
      <stop offset="100%" stop-color="#a95b2c" />
    </linearGradient>
    <filter id="shadow" x="-20%" y="-20%" width="140%" height="140%">
      <feDropShadow dx="0" dy="24" stdDeviation="28" flood-color="#7a5830" flood-opacity="0.16" />
    </filter>
  </defs>

  <rect width="1932" height="828" rx="116" fill="url(#bg)" />
  <rect width="1932" height="828" rx="116" fill="url(#leftGlow)" />
  <rect width="1932" height="828" rx="116" fill="url(#rightGlow)" />

  <g filter="url(#shadow)">
    <rect x="72" y="68" width="1788" height="692" rx="54" fill="url(#panel)" stroke="#d9c7af" />
  </g>

  <circle cx="1678" cy="210" r="144" fill="#edd8b8" opacity="0.88" />
  <circle cx="250" cy="166" r="82" fill="#e5ebe6" opacity="0.92" />

  <g transform="translate(126 124)">
    <rect x="0" y="0" width="190" height="58" rx="29" fill="#e7eeeb" />
    <circle cx="38" cy="29" r="10" fill="#0f6c6d" />
    <text x="62" y="38" fill="#0f6c6d" font-family="Apple SD Gothic Neo, Noto Sans KR, sans-serif" font-size="28" font-weight="800">서울 · 경기</text>

    <text x="0" y="156" fill="#231f1a" font-family="Iowan Old Style, AppleMyungjo, serif" font-size="102" font-weight="700" letter-spacing="-4">
      실거래 TOP 10
    </text>
    <text x="0" y="232" fill="#6f6559" font-family="Apple SD Gothic Neo, Noto Sans KR, sans-serif" font-size="40" font-weight="500">
      국토교통부 공개 자료를 정리해 가장 비싼 거래와 최신 계약 거래를 한눈에 보여주는 정보 서비스
    </text>

    <g transform="translate(0 302)">
      <rect x="0" y="0" width="328" height="120" rx="32" fill="#fffaf3" stroke="#ead8c1" />
      <text x="34" y="42" fill="#8b7d6b" font-family="Apple SD Gothic Neo, Noto Sans KR, sans-serif" font-size="24" font-weight="700">최고 거래</text>
      <text x="34" y="88" fill="#231f1a" font-family="Apple SD Gothic Neo, Noto Sans KR, sans-serif" font-size="56" font-weight="900" letter-spacing="-2">140.4억</text>
    </g>

    <g transform="translate(354 302)">
      <rect x="0" y="0" width="328" height="120" rx="32" fill="#fffaf3" stroke="#ead8c1" />
      <text x="34" y="42" fill="#8b7d6b" font-family="Apple SD Gothic Neo, Noto Sans KR, sans-serif" font-size="24" font-weight="700">최근 계약일</text>
      <text x="34" y="88" fill="#231f1a" font-family="Apple SD Gothic Neo, Noto Sans KR, sans-serif" font-size="56" font-weight="900" letter-spacing="-2">2026.03.19</text>
    </g>

    <g transform="translate(0 462)">
      <rect x="0" y="0" width="256" height="56" rx="28" fill="#f2e5d2" />
      <text x="38" y="37" fill="#8f4c1c" font-family="Apple SD Gothic Neo, Noto Sans KR, sans-serif" font-size="26" font-weight="800">실거래가 공개시스템</text>
    </g>

    <g transform="translate(278 462)">
      <rect x="0" y="0" width="286" height="56" rx="28" fill="#e7eeeb" />
      <text x="38" y="37" fill="#0f6c6d" font-family="Apple SD Gothic Neo, Noto Sans KR, sans-serif" font-size="26" font-weight="800">공공데이터포털 OpenAPI</text>
    </g>
  </g>

  <g transform="translate(1158 144)">
    <rect x="0" y="0" width="604" height="520" rx="44" fill="#fffaf3" stroke="#e8d6bf" />

    <g transform="translate(42 38)">
      <rect x="0" y="0" width="120" height="46" rx="23" fill="#e7eeeb" />
      <text x="28" y="31" fill="#0f6c6d" font-family="Apple SD Gothic Neo, Noto Sans KR, sans-serif" font-size="24" font-weight="800">서울</text>
      <rect x="134" y="0" width="132" height="46" rx="23" fill="#f2e5d2" />
      <text x="166" y="31" fill="#8f4c1c" font-family="Apple SD Gothic Neo, Noto Sans KR, sans-serif" font-size="24" font-weight="800">서초구</text>
    </g>

    <text x="42" y="150" fill="#231f1a" font-family="Apple SD Gothic Neo, Noto Sans KR, sans-serif" font-size="72" font-weight="900" letter-spacing="-3">래미안퍼스티지</text>
    <text x="42" y="204" fill="#7c6f61" font-family="Apple SD Gothic Neo, Noto Sans KR, sans-serif" font-size="32" font-weight="600">반포동 · 지번 18-1</text>

    <text x="428" y="112" fill="#857767" font-family="Apple SD Gothic Neo, Noto Sans KR, sans-serif" font-size="26" font-weight="700">거래금액</text>
    <text x="374" y="170" fill="#231f1a" font-family="Apple SD Gothic Neo, Noto Sans KR, sans-serif" font-size="78" font-weight="900" letter-spacing="-3">96.0억</text>

    <g transform="translate(42 260)">
      <rect x="0" y="0" width="242" height="102" rx="28" fill="#f7efe4" />
      <text x="28" y="38" fill="#8b7d6b" font-family="Apple SD Gothic Neo, Noto Sans KR, sans-serif" font-size="24" font-weight="700">전용면적</text>
      <text x="28" y="78" fill="#231f1a" font-family="Apple SD Gothic Neo, Noto Sans KR, sans-serif" font-size="44" font-weight="900">222.76㎡</text>
    </g>

    <g transform="translate(318 260)">
      <rect x="0" y="0" width="242" height="102" rx="28" fill="#f7efe4" />
      <text x="28" y="38" fill="#8b7d6b" font-family="Apple SD Gothic Neo, Noto Sans KR, sans-serif" font-size="24" font-weight="700">계약일</text>
      <text x="28" y="78" fill="#231f1a" font-family="Apple SD Gothic Neo, Noto Sans KR, sans-serif" font-size="44" font-weight="900">2026.01.13</text>
    </g>

    <g transform="translate(42 388)">
      <path d="M0 92L96 70L186 84L284 36L408 0L476 18" fill="none" stroke="#0f6c6d" stroke-width="14" stroke-linecap="round" stroke-linejoin="round" />
      <circle cx="96" cy="70" r="10" fill="#cf8750" />
      <circle cx="186" cy="84" r="10" fill="#cf8750" />
      <circle cx="284" cy="36" r="10" fill="#cf8750" />
      <circle cx="408" cy="0" r="10" fill="#cf8750" />
      <path d="M430 0H476V46" fill="none" stroke="#0f6c6d" stroke-width="14" stroke-linecap="round" stroke-linejoin="round" />
    </g>
  </g>

  <g transform="translate(1180 538)">
    <path d="M0 118H618" stroke="#d5c2aa" stroke-width="12" stroke-linecap="round" opacity="0.7" />
    <g fill="#264248">
      <rect x="18" y="58" width="54" height="60" rx="10" />
      <rect x="92" y="26" width="66" height="92" rx="10" />
      <rect x="178" y="0" width="74" height="118" rx="10" />
      <rect x="272" y="38" width="54" height="80" rx="10" />
      <rect x="348" y="12" width="88" height="106" rx="12" />
      <rect x="458" y="48" width="62" height="70" rx="10" />
      <rect x="538" y="24" width="58" height="94" rx="10" />
    </g>
    <g fill="#668389" opacity="0.32">
      <rect x="108" y="42" width="11" height="11" rx="3" />
      <rect x="126" y="42" width="11" height="11" rx="3" />
      <rect x="108" y="60" width="11" height="11" rx="3" />
      <rect x="126" y="60" width="11" height="11" rx="3" />
      <rect x="196" y="18" width="12" height="12" rx="3" />
      <rect x="216" y="18" width="12" height="12" rx="3" />
      <rect x="196" y="38" width="12" height="12" rx="3" />
      <rect x="216" y="38" width="12" height="12" rx="3" />
      <rect x="372" y="32" width="13" height="13" rx="3" />
      <rect x="394" y="32" width="13" height="13" rx="3" />
      <rect x="372" y="53" width="13" height="13" rx="3" />
      <rect x="394" y="53" width="13" height="13" rx="3" />
      <rect x="555" y="42" width="11" height="11" rx="3" />
      <rect x="573" y="42" width="11" height="11" rx="3" />
      <rect x="555" y="60" width="11" height="11" rx="3" />
      <rect x="573" y="60" width="11" height="11" rx="3" />
    </g>
  </g>
</svg>
