<svg xmlns="http://www.w3.org/2000/svg" width="600" height="600" viewBox="0 0 600 600" role="img" aria-labelledby="title desc">
  <title id="title">Real Estate Watch app icon</title>
  <desc id="desc">A warm-toned app icon combining a property skyline and an upward real estate trend line.</desc>
  <defs>
    <linearGradient id="bg" x1="0" y1="0" x2="1" y2="1">
      <stop offset="0%" stop-color="#efe4d3" />
      <stop offset="54%" stop-color="#f7f1e8" />
      <stop offset="100%" stop-color="#f1debe" />
    </linearGradient>
    <radialGradient id="glow-left" cx="0" cy="0" r="1" gradientUnits="userSpaceOnUse" gradientTransform="translate(128 118) rotate(26) scale(250 250)">
      <stop offset="0%" stop-color="#0f6c6d" stop-opacity="0.20" />
      <stop offset="100%" stop-color="#0f6c6d" stop-opacity="0" />
    </radialGradient>
    <radialGradient id="glow-right" cx="0" cy="0" r="1" gradientUnits="userSpaceOnUse" gradientTransform="translate(500 126) rotate(90) scale(220 220)">
      <stop offset="0%" stop-color="#d69a5f" stop-opacity="0.34" />
      <stop offset="100%" stop-color="#d69a5f" stop-opacity="0" />
    </radialGradient>
    <linearGradient id="card" x1="0" y1="0" x2="1" y2="1">
      <stop offset="0%" stop-color="#fff8ee" />
      <stop offset="100%" stop-color="#f8ead5" />
    </linearGradient>
    <linearGradient id="roof" x1="0" y1="0" x2="1" y2="1">
      <stop offset="0%" stop-color="#cf8750" />
      <stop offset="100%" stop-color="#a85929" />
    </linearGradient>
    <filter id="shadow" x="-20%" y="-20%" width="140%" height="140%">
      <feDropShadow dx="0" dy="22" stdDeviation="24" flood-color="#7a5830" flood-opacity="0.18" />
    </filter>
  </defs>

  <rect width="600" height="600" rx="140" fill="url(#bg)" />
  <rect width="600" height="600" rx="140" fill="url(#glow-left)" />
  <rect width="600" height="600" rx="140" fill="url(#glow-right)" />

  <g filter="url(#shadow)">
    <rect x="86" y="92" width="428" height="428" rx="88" fill="url(#card)" stroke="rgba(86,67,49,0.10)" />
  </g>

  <circle cx="458" cy="160" r="70" fill="#edd9bb" opacity="0.72" />
  <circle cx="168" cy="154" r="38" fill="#e8ece7" opacity="0.92" />

  <g transform="translate(120 128)">
    <path d="M180 18L300 96H60Z" fill="url(#roof)" opacity="0.96" />
    <rect x="94" y="95" width="172" height="138" rx="28" fill="#fff9f0" stroke="#d8bf9f" />
    <rect x="160" y="146" width="40" height="87" rx="18" fill="#d9b991" />
    <rect x="114" y="120" width="26" height="44" rx="10" fill="#efd8b8" />
    <rect x="219" y="120" width="26" height="44" rx="10" fill="#efd8b8" />
  </g>

  <g transform="translate(118 310)">
    <rect x="18" y="126" width="42" height="54" rx="10" fill="#244046" />
    <rect x="72" y="101" width="54" height="79" rx="10" fill="#244046" />
    <rect x="139" y="70" width="64" height="110" rx="10" fill="#244046" />
    <rect x="217" y="92" width="42" height="88" rx="10" fill="#244046" />
    <rect x="273" y="44" width="78" height="136" rx="12" fill="#244046" />

    <g fill="#5f7d82" opacity="0.34">
      <rect x="87" y="117" width="10" height="10" rx="3" />
      <rect x="103" y="117" width="10" height="10" rx="3" />
      <rect x="87" y="134" width="10" height="10" rx="3" />
      <rect x="103" y="134" width="10" height="10" rx="3" />

      <rect x="157" y="86" width="11" height="11" rx="3" />
      <rect x="175" y="86" width="11" height="11" rx="3" />
      <rect x="157" y="104" width="11" height="11" rx="3" />
      <rect x="175" y="104" width="11" height="11" rx="3" />
      <rect x="157" y="122" width="11" height="11" rx="3" />
      <rect x="175" y="122" width="11" height="11" rx="3" />

      <rect x="295" y="65" width="12" height="12" rx="3" />
      <rect x="314" y="65" width="12" height="12" rx="3" />
      <rect x="295" y="84" width="12" height="12" rx="3" />
      <rect x="314" y="84" width="12" height="12" rx="3" />
      <rect x="295" y="103" width="12" height="12" rx="3" />
      <rect x="314" y="103" width="12" height="12" rx="3" />
    </g>
  </g>

  <g transform="translate(116 188)">
    <path
      d="M22 226L95 178L170 192L238 126L322 92L378 32"
      fill="none"
      stroke="#0f6c6d"
      stroke-width="18"
      stroke-linecap="round"
      stroke-linejoin="round"
    />
    <path
      d="M345 32H378V65"
      fill="none"
      stroke="#0f6c6d"
      stroke-width="18"
      stroke-linecap="round"
      stroke-linejoin="round"
    />
    <circle cx="95" cy="178" r="12" fill="#d4874e" />
    <circle cx="170" cy="192" r="12" fill="#d4874e" />
    <circle cx="238" cy="126" r="12" fill="#d4874e" />
    <circle cx="322" cy="92" r="12" fill="#d4874e" />
  </g>

  <rect x="126" y="454" width="348" height="12" rx="6" fill="#d7c5ae" opacity="0.78" />
</svg>
