<svg xmlns="http://www.w3.org/2000/svg" width="1932" height="828" viewBox="0 0 1932 828" role="img" aria-label="Sunken Sixway Defense 2 horizontal thumbnail">
  <defs>
    <linearGradient id="bg" x1="0" y1="0" x2="1932" y2="828" gradientUnits="userSpaceOnUse">
      <stop offset="0%" stop-color="#081527"/>
      <stop offset="52%" stop-color="#123966"/>
      <stop offset="100%" stop-color="#09121c"/>
    </linearGradient>
    <radialGradient id="left-glow" cx="0" cy="0" r="1" gradientUnits="userSpaceOnUse" gradientTransform="translate(360 328) rotate(90) scale(440 620)">
      <stop offset="0%" stop-color="#31c4be" stop-opacity="0.26"/>
      <stop offset="100%" stop-color="#31c4be" stop-opacity="0"/>
    </radialGradient>
    <radialGradient id="right-glow" cx="0" cy="0" r="1" gradientUnits="userSpaceOnUse" gradientTransform="translate(1496 400) rotate(90) scale(360 540)">
      <stop offset="0%" stop-color="#ffcb6b" stop-opacity="0.22"/>
      <stop offset="100%" stop-color="#ffcb6b" stop-opacity="0"/>
    </radialGradient>
    <linearGradient id="panel" x1="110" y1="126" x2="942" y2="706" gradientUnits="userSpaceOnUse">
      <stop offset="0%" stop-color="#0b2441" stop-opacity="0.92"/>
      <stop offset="100%" stop-color="#0b1730" stop-opacity="0.86"/>
    </linearGradient>
    <linearGradient id="title-grad" x1="158" y1="208" x2="934" y2="520" gradientUnits="userSpaceOnUse">
      <stop offset="0%" stop-color="#f4fbff"/>
      <stop offset="100%" stop-color="#c7ebff"/>
    </linearGradient>
    <radialGradient id="logo-halo" cx="0" cy="0" r="1" gradientUnits="userSpaceOnUse" gradientTransform="translate(1452 414) rotate(90) scale(314)">
      <stop offset="0%" stop-color="#95cfff" stop-opacity="0.28"/>
      <stop offset="100%" stop-color="#95cfff" stop-opacity="0"/>
    </radialGradient>
    <radialGradient id="vignette" cx="0" cy="0" r="1" gradientUnits="userSpaceOnUse" gradientTransform="translate(966 414) rotate(90) scale(526 1264)">
      <stop offset="70%" stop-color="#020916" stop-opacity="0"/>
      <stop offset="100%" stop-color="#01050c" stop-opacity="0.54"/>
    </radialGradient>
    <filter id="panel-shadow" x="-14%" y="-18%" width="132%" height="148%">
      <feDropShadow dx="0" dy="26" stdDeviation="24" flood-color="#020916" flood-opacity="0.54"/>
    </filter>
    <filter id="badge-shadow" x="-30%" y="-80%" width="180%" height="240%">
      <feDropShadow dx="0" dy="14" stdDeviation="12" flood-color="#020814" flood-opacity="0.5"/>
    </filter>
    <filter id="logo-shadow" x="-40%" y="-40%" width="180%" height="180%">
      <feDropShadow dx="0" dy="24" stdDeviation="24" flood-color="#020814" flood-opacity="0.62"/>
    </filter>
  </defs>

  <rect width="1932" height="828" fill="url(#bg)"/>
  <rect width="1932" height="828" fill="url(#left-glow)"/>
  <rect width="1932" height="828" fill="url(#right-glow)"/>

  <g opacity="0.18" fill="#c9efff">
    <circle cx="180" cy="96" r="14"/>
    <circle cx="266" cy="74" r="7"/>
    <circle cx="344" cy="128" r="9"/>
    <circle cx="1716" cy="116" r="8"/>
    <circle cx="1782" cy="150" r="10"/>
  </g>

  <g filter="url(#panel-shadow)">
    <rect x="104" y="120" width="884" height="590" rx="48" fill="url(#panel)"/>
    <rect x="104" y="120" width="884" height="590" rx="48" fill="none" stroke="#8dd8ff" stroke-opacity="0.18" stroke-width="4"/>
  </g>

  <text x="162" y="214" fill="#8fe5de" font-family="Avenir Next, Pretendard, Apple SD Gothic Neo, sans-serif" font-size="46" font-weight="700" letter-spacing="8">PORTRAIT DEFENSE</text>
  <text x="152" y="350" fill="url(#title-grad)" font-family="Avenir Next, Pretendard, Apple SD Gothic Neo, sans-serif" font-size="114" font-weight="900">선큰 식스웨이</text>
  <text x="152" y="470" fill="url(#title-grad)" font-family="Avenir Next, Pretendard, Apple SD Gothic Neo, sans-serif" font-size="114" font-weight="900">디펜스 2</text>
  <text x="160" y="576" fill="#dceeff" font-family="Avenir Next, Pretendard, Apple SD Gothic Neo, sans-serif" font-size="42" font-weight="600">육방향 길목에 선큰을 세우고 카드 성장으로 전열을 버티세요</text>

  <g filter="url(#badge-shadow)">
    <rect x="160" y="626" width="258" height="68" rx="34" fill="#0a3157" fill-opacity="0.96"/>
    <rect x="160" y="626" width="258" height="68" rx="34" fill="none" stroke="#7de0ff" stroke-opacity="0.34" stroke-width="3"/>
    <circle cx="201" cy="660" r="10" fill="#7ce9dc"/>
    <text x="228" y="674" fill="#edfaff" font-family="Avenir Next, Pretendard, Apple SD Gothic Neo, sans-serif" font-size="30" font-weight="800">AUTO BATTLE</text>
  </g>

  <g filter="url(#badge-shadow)">
    <rect x="438" y="626" width="224" height="68" rx="34" fill="#3f2814" fill-opacity="0.96"/>
    <rect x="438" y="626" width="224" height="68" rx="34" fill="none" stroke="#ffc66d" stroke-opacity="0.34" stroke-width="3"/>
    <circle cx="479" cy="660" r="10" fill="#ffc86c"/>
    <text x="506" y="674" fill="#fff6e2" font-family="Avenir Next, Pretendard, Apple SD Gothic Neo, sans-serif" font-size="30" font-weight="800">CARD PERKS</text>
  </g>

  <g filter="url(#badge-shadow)">
    <rect x="682" y="626" width="232" height="68" rx="34" fill="#102f28" fill-opacity="0.96"/>
    <rect x="682" y="626" width="232" height="68" rx="34" fill="none" stroke="#97efbf" stroke-opacity="0.34" stroke-width="3"/>
    <circle cx="723" cy="660" r="10" fill="#91efb6"/>
    <text x="750" y="674" fill="#f0fff4" font-family="Avenir Next, Pretendard, Apple SD Gothic Neo, sans-serif" font-size="30" font-weight="800">SIX LANES</text>
  </g>

  <g filter="url(#logo-shadow)">
    <circle cx="1452" cy="414" r="326" fill="#06152c" fill-opacity="0.72"/>
    <circle cx="1452" cy="414" r="294" fill="none" stroke="#71cbff" stroke-opacity="0.35" stroke-width="10"/>
    <circle cx="1452" cy="414" r="338" fill="none" stroke="#ffd67f" stroke-opacity="0.2" stroke-width="20"/>
    <rect x="1152" y="114" width="600" height="600" rx="300" fill="url(#logo-halo)"/>
    <svg x="1152" y="114" width="600" height="600" viewBox="0 0 600 600" aria-hidden="true">
      <defs>
        <linearGradient id="logo-bg" x1="64" y1="38" x2="546" y2="584" gradientUnits="userSpaceOnUse">
          <stop offset="0%" stop-color="#091a2b"/>
          <stop offset="52%" stop-color="#12355c"/>
          <stop offset="100%" stop-color="#08111d"/>
        </linearGradient>
        <radialGradient id="logo-glow-left" cx="0" cy="0" r="1" gradientUnits="userSpaceOnUse" gradientTransform="translate(164 170) rotate(90) scale(246)">
          <stop offset="0%" stop-color="#3cd2c8" stop-opacity="0.34"/>
          <stop offset="100%" stop-color="#3cd2c8" stop-opacity="0"/>
        </radialGradient>
        <radialGradient id="logo-glow-right" cx="0" cy="0" r="1" gradientUnits="userSpaceOnUse" gradientTransform="translate(434 430) rotate(90) scale(228)">
          <stop offset="0%" stop-color="#f2b74f" stop-opacity="0.22"/>
          <stop offset="100%" stop-color="#f2b74f" stop-opacity="0"/>
        </radialGradient>
        <radialGradient id="logo-board-fill" cx="0" cy="0" r="1" gradientUnits="userSpaceOnUse" gradientTransform="translate(300 304) rotate(90) scale(236)">
          <stop offset="0%" stop-color="#1a3e67" stop-opacity="0.82"/>
          <stop offset="100%" stop-color="#0b1524" stop-opacity="0.24"/>
        </radialGradient>
        <radialGradient id="logo-center-glow" cx="0" cy="0" r="1" gradientUnits="userSpaceOnUse" gradientTransform="translate(300 300) rotate(90) scale(144)">
          <stop offset="0%" stop-color="#ffe38e" stop-opacity="0.34"/>
          <stop offset="100%" stop-color="#ffe38e" stop-opacity="0"/>
        </radialGradient>
        <linearGradient id="logo-lane-core" x1="300" y1="90" x2="300" y2="300" gradientUnits="userSpaceOnUse">
          <stop offset="0%" stop-color="#8ff0ff"/>
          <stop offset="100%" stop-color="#54a8ff"/>
        </linearGradient>
        <linearGradient id="logo-lane-edge" x1="300" y1="102" x2="300" y2="300" gradientUnits="userSpaceOnUse">
          <stop offset="0%" stop-color="#d5f8ff"/>
          <stop offset="100%" stop-color="#8cc7ff"/>
        </linearGradient>
        <linearGradient id="logo-tower-cyan" x1="0%" y1="0%" x2="100%" y2="100%">
          <stop offset="0%" stop-color="#c9f6ff"/>
          <stop offset="100%" stop-color="#68b8ff"/>
        </linearGradient>
        <linearGradient id="logo-tower-orange" x1="0%" y1="0%" x2="100%" y2="100%">
          <stop offset="0%" stop-color="#ffd9a2"/>
          <stop offset="100%" stop-color="#ff9d64"/>
        </linearGradient>
        <linearGradient id="logo-tower-green" x1="0%" y1="0%" x2="100%" y2="100%">
          <stop offset="0%" stop-color="#c6ffd7"/>
          <stop offset="100%" stop-color="#5ad58d"/>
        </linearGradient>
        <linearGradient id="logo-enemy" x1="0%" y1="0%" x2="100%" y2="100%">
          <stop offset="0%" stop-color="#ffddb0"/>
          <stop offset="100%" stop-color="#e28e59"/>
        </linearGradient>
        <pattern id="logo-grid" width="70" height="60" patternUnits="userSpaceOnUse">
          <path d="M17.5 0H52.5L70 30L52.5 60H17.5L0 30Z" fill="none" stroke="#2a4c6e" stroke-width="2"/>
        </pattern>
        <filter id="logo-soft-shadow" x="-40%" y="-40%" width="180%" height="180%">
          <feDropShadow dx="0" dy="18" stdDeviation="18" flood-color="#020711" flood-opacity="0.56"/>
        </filter>
        <filter id="logo-board-glow" x="-30%" y="-30%" width="160%" height="160%">
          <feDropShadow dx="0" dy="0" stdDeviation="12" flood-color="#7cd8ff" flood-opacity="0.28"/>
        </filter>
        <filter id="logo-tower-glow" x="-40%" y="-40%" width="180%" height="180%">
          <feDropShadow dx="0" dy="0" stdDeviation="9" flood-color="#c4f3ff" flood-opacity="0.32"/>
        </filter>
        <g id="logo-lane">
          <path d="M300 300L300 96" stroke="#091423" stroke-width="56" stroke-linecap="round" opacity="0.44"/>
          <path d="M300 300L300 96" stroke="url(#logo-lane-core)" stroke-width="28" stroke-linecap="round" filter="url(#logo-board-glow)"/>
          <path d="M300 300L300 96" stroke="url(#logo-lane-edge)" stroke-width="8" stroke-linecap="round" opacity="0.92"/>
          <circle cx="300" cy="180" r="12" fill="#16314c" stroke="#8ddfff" stroke-width="4"/>
          <circle cx="300" cy="134" r="8" fill="#ffb872" opacity="0.86"/>
        </g>
        <g id="logo-tower">
          <circle cx="0" cy="0" r="31" fill="#0d1a2b" stroke="#97dcff" stroke-width="5"/>
          <circle cx="0" cy="0" r="21" fill="url(#logo-tower-cyan)" filter="url(#logo-tower-glow)"/>
          <path d="M0 -32L12 -12L0 -2L-12 -12Z" fill="#ecf9ff" opacity="0.88"/>
          <circle cx="0" cy="0" r="7" fill="#08203a"/>
        </g>
        <g id="logo-tower-heavy">
          <circle cx="0" cy="0" r="36" fill="#111f31" stroke="#ffd697" stroke-width="5"/>
          <circle cx="0" cy="0" r="23" fill="url(#logo-tower-orange)" filter="url(#logo-tower-glow)"/>
          <rect x="-18" y="-8" width="36" height="16" rx="8" fill="#fff0c8" opacity="0.86"/>
          <circle cx="0" cy="0" r="8" fill="#4e2e13"/>
        </g>
        <g id="logo-tower-tank">
          <circle cx="0" cy="0" r="34" fill="#102231" stroke="#9cf0bd" stroke-width="5"/>
          <circle cx="0" cy="0" r="22" fill="url(#logo-tower-green)" filter="url(#logo-tower-glow)"/>
          <path d="M-12 12H12L0 -16Z" fill="#effff2" opacity="0.82"/>
          <circle cx="0" cy="0" r="7" fill="#173a21"/>
        </g>
        <g id="logo-enemy-mark">
          <rect x="-11" y="-11" width="22" height="22" rx="5" transform="rotate(45)" fill="url(#logo-enemy)" stroke="#fff1d7" stroke-width="3"/>
          <circle cx="0" cy="0" r="4" fill="#6e361b"/>
        </g>
      </defs>

      <rect width="600" height="600" fill="url(#logo-bg)"/>
      <rect width="600" height="600" fill="url(#logo-glow-left)"/>
      <rect width="600" height="600" fill="url(#logo-glow-right)"/>
      <rect width="600" height="600" fill="url(#logo-grid)" opacity="0.24"/>

      <g opacity="0.2" fill="#d8f6ff">
        <circle cx="96" cy="84" r="11"/>
        <circle cx="146" cy="118" r="5"/>
        <circle cx="486" cy="102" r="8"/>
        <circle cx="452" cy="146" r="4"/>
        <circle cx="132" cy="478" r="7"/>
      </g>

      <g filter="url(#logo-soft-shadow)">
        <circle cx="300" cy="300" r="222" fill="#07111d" opacity="0.78"/>
      </g>
      <circle cx="300" cy="300" r="214" fill="url(#logo-board-fill)"/>
      <circle cx="300" cy="300" r="205" fill="none" stroke="#23466c" stroke-width="24" opacity="0.6"/>
      <circle cx="300" cy="300" r="166" fill="none" stroke="#74d4ff" stroke-width="12" opacity="0.94" filter="url(#logo-board-glow)"/>
      <circle cx="300" cy="300" r="116" fill="none" stroke="#ffd47a" stroke-width="8" stroke-dasharray="8 18" opacity="0.88"/>
      <circle cx="300" cy="300" r="88" fill="#102441" opacity="0.58"/>
      <circle cx="300" cy="300" r="86" fill="url(#logo-center-glow)"/>

      <g>
        <use href="#logo-lane"/>
        <use href="#logo-lane" transform="rotate(60 300 300)"/>
        <use href="#logo-lane" transform="rotate(120 300 300)"/>
        <use href="#logo-lane" transform="rotate(180 300 300)"/>
        <use href="#logo-lane" transform="rotate(240 300 300)"/>
        <use href="#logo-lane" transform="rotate(300 300 300)"/>
      </g>

      <g>
        <use href="#logo-tower" transform="translate(300 140)"/>
        <use href="#logo-tower-heavy" transform="translate(434 220) rotate(18)"/>
        <use href="#logo-tower-tank" transform="translate(434 378) rotate(-12)"/>
        <use href="#logo-tower" transform="translate(300 462) rotate(180)"/>
        <use href="#logo-tower-heavy" transform="translate(166 378) rotate(-18)"/>
        <use href="#logo-tower-tank" transform="translate(166 220) rotate(10)"/>
      </g>

      <g>
        <use href="#logo-enemy-mark" transform="translate(300 110)"/>
        <use href="#logo-enemy-mark" transform="translate(468 208)"/>
        <use href="#logo-enemy-mark" transform="translate(468 392)"/>
        <use href="#logo-enemy-mark" transform="translate(300 490)"/>
        <use href="#logo-enemy-mark" transform="translate(132 392)"/>
        <use href="#logo-enemy-mark" transform="translate(132 208)"/>
      </g>

      <g filter="url(#logo-soft-shadow)">
        <polygon points="300,224 356,256 356,320 300,352 244,320 244,256" fill="#132840" stroke="#ffd67d" stroke-width="8"/>
        <polygon points="300,244 338,266 338,310 300,332 262,310 262,266" fill="#ffcf66"/>
        <circle cx="300" cy="288" r="18" fill="#fff1b2"/>
        <path d="M284 304L300 268L316 304Z" fill="#8b5a1d"/>
      </g>
    </svg>
  </g>

  <rect width="1932" height="828" fill="url(#vignette)"/>
</svg>
