<svg width="640" height="360" viewBox="0 0 640 360" fill="none" xmlns="http://www.w3.org/2000/svg">
  <defs>
    <linearGradient id="bg" x1="0" y1="0" x2="640" y2="360" gradientUnits="userSpaceOnUse">
      <stop stop-color="#23163A"/>
      <stop offset="1" stop-color="#0D0A17"/>
    </linearGradient>
    <radialGradient id="moon" cx="0" cy="0" r="1" gradientUnits="userSpaceOnUse" gradientTransform="translate(487 82) rotate(90) scale(102 102)">
      <stop stop-color="#FFE8AA"/>
      <stop offset="1" stop-color="#FFE8AA" stop-opacity="0"/>
    </radialGradient>
    <linearGradient id="blade" x1="0" y1="0" x2="1" y2="1">
      <stop stop-color="#8FE9FF"/>
      <stop offset="1" stop-color="#C29BFF"/>
    </linearGradient>
  </defs>
  <rect width="640" height="360" rx="22" fill="url(#bg)"/>
  <circle cx="487" cy="82" r="102" fill="url(#moon)"/>
  <g opacity="0.5" fill="#2A2044">
    <rect x="34" y="147" width="66" height="181" rx="8"/>
    <rect x="116" y="98" width="60" height="230" rx="8"/>
    <rect x="188" y="132" width="78" height="196" rx="8"/>
    <rect x="528" y="126" width="74" height="202" rx="8"/>
  </g>
  <g>
    <path d="M337 206L365 158L381 184L355 236L337 206Z" fill="url(#blade)"/>
    <path d="M365 158L409 120L423 136L381 184L365 158Z" fill="#BFE8FF"/>
    <path d="M242 263L297 197L331 229L274 292L242 263Z" fill="#8FD8FF"/>
    <circle cx="291" cy="230" r="13" fill="#E7F6FF"/>
    <circle cx="324" cy="228" r="9" fill="#D4F1FF"/>
  </g>
  <g>
    <path d="M446 227L477 191L518 224L488 265L446 227Z" fill="#A54362"/>
    <path d="M469 176L491 194L477 209L453 190L469 176Z" fill="#C95A7A"/>
    <circle cx="491" cy="225" r="4" fill="#FFD6E3"/>
    <circle cx="466" cy="230" r="4" fill="#FFD6E3"/>
  </g>
  <g>
    <circle cx="332" cy="77" r="7" fill="#FFE091"/>
    <circle cx="304" cy="112" r="5" fill="#FFE091"/>
    <circle cx="272" cy="84" r="4" fill="#FFE091"/>
    <circle cx="357" cy="116" r="5" fill="#FFE091"/>
  </g>
  <rect x="22" y="20" width="280" height="44" rx="12" fill="#0E1A33" fill-opacity="0.68"/>
  <text x="38" y="49" fill="#F9D264" font-size="25" font-family="Arial, sans-serif" font-weight="700">Crimson Hunter Trials</text>
</svg>
