<?xml version="1.0" encoding="UTF-8"?>
<svg xmlns="http://www.w3.org/2000/svg" viewBox="0 0 640 360" role="img" aria-label="Hyperfold Golden Hunt thumbnail">
  <defs>
    <linearGradient id="bg" x1="0" y1="0" x2="1" y2="1">
      <stop offset="0%" stop-color="#111a39"/>
      <stop offset="100%" stop-color="#1c1e4f"/>
    </linearGradient>
    <linearGradient id="warp" x1="0" y1="0" x2="0" y2="1">
      <stop offset="0%" stop-color="#8ad8ff" stop-opacity="0.45"/>
      <stop offset="100%" stop-color="#8ad8ff" stop-opacity="0"/>
    </linearGradient>
  </defs>

  <rect width="640" height="360" fill="url(#bg)"/>
  <g opacity="0.35" fill="#d8e6ff">
    <circle cx="42" cy="36" r="2"/><circle cx="88" cy="22" r="2"/><circle cx="140" cy="46" r="2"/>
    <circle cx="200" cy="30" r="2"/><circle cx="255" cy="50" r="2"/><circle cx="312" cy="28" r="2"/>
    <circle cx="370" cy="44" r="2"/><circle cx="426" cy="23" r="2"/><circle cx="484" cy="43" r="2"/>
    <circle cx="542" cy="27" r="2"/><circle cx="598" cy="48" r="2"/>
  </g>

  <rect x="58" y="66" width="122" height="70" rx="8" fill="#263b77" opacity="0.82"/>
  <rect x="206" y="92" width="122" height="70" rx="8" fill="#3d2e86" opacity="0.82"/>
  <rect x="354" y="66" width="122" height="70" rx="8" fill="#264f78" opacity="0.82"/>
  <rect x="502" y="92" width="122" height="70" rx="8" fill="#6a2f74" opacity="0.82"/>

  <path d="M119 136 C168 164, 226 82, 267 126 C303 164, 362 40, 416 110 C462 168, 533 74, 563 128" fill="none" stroke="#90f5ff" stroke-width="4" opacity="0.9"/>

  <g transform="translate(190 248)">
    <polygon points="0,-38 22,12 -22,12" fill="#74a7d4"/>
    <polygon points="-34,10 -12,-12 -8,10" fill="#547ba6"/>
    <polygon points="34,10 12,-12 8,10" fill="#547ba6"/>
    <polygon points="0,-20 8,-6 0,-4 -8,-6" fill="#abddff"/>
  </g>

  <g transform="translate(468 220)">
    <ellipse cx="0" cy="0" rx="24" ry="11" fill="#89f0ff"/>
    <circle cx="0" cy="-2" r="6" fill="#ff6f66"/>
  </g>

  <g transform="translate(320 170)">
    <ellipse cx="0" cy="0" rx="28" ry="12" fill="#ffd84f"/>
    <ellipse cx="0" cy="0" rx="16" ry="6" fill="#fff4bf"/>
  </g>

  <rect x="22" y="286" width="596" height="58" rx="12" fill="#070d1b" fill-opacity="0.58"/>
  <text x="36" y="322" fill="#f1f7ff" font-family="Arial, sans-serif" font-size="28" font-weight="700">Hyperfold: Golden Hunt</text>
</svg>
