<svg xmlns="http://www.w3.org/2000/svg" viewBox="0 0 640 360" role="img" aria-label="Winter Ski Rush thumbnail">
  <defs>
    <linearGradient id="bg" x1="0" y1="0" x2="1" y2="1">
      <stop offset="0%" stop-color="#19365e"/>
      <stop offset="100%" stop-color="#0a1426"/>
    </linearGradient>
    <linearGradient id="slope" x1="0" y1="0" x2="1" y2="0">
      <stop offset="0%" stop-color="#9dd8ff" stop-opacity="0.9"/>
      <stop offset="100%" stop-color="#f4fbff" stop-opacity="0.9"/>
    </linearGradient>
  </defs>
  <rect width="640" height="360" fill="url(#bg)"/>
  <path d="M40 300 C140 240 180 190 300 160 C390 140 470 90 600 50" fill="none" stroke="url(#slope)" stroke-width="40" stroke-linecap="round"/>
  <path d="M40 300 C140 240 180 190 300 160 C390 140 470 90 600 50" fill="none" stroke="#4f9fe8" stroke-opacity="0.55" stroke-width="8" stroke-linecap="round"/>
  <g transform="translate(290 165)">
    <ellipse cx="0" cy="18" rx="18" ry="6" fill="#000" fill-opacity="0.25"/>
    <path d="M-16 20 L14 24" stroke="#d7eeff" stroke-width="4" stroke-linecap="round"/>
    <path d="M-10 24 L20 28" stroke="#c4e2ff" stroke-width="4" stroke-linecap="round"/>
    <path d="M0 -12 L10 12 L-10 12 Z" fill="#ffd98d"/>
    <circle cx="0" cy="-17" r="5" fill="#f6fbff"/>
  </g>
  <g fill="#9be0ff" fill-opacity="0.45">
    <circle cx="96" cy="62" r="2"/>
    <circle cx="152" cy="104" r="2"/>
    <circle cx="220" cy="78" r="2"/>
    <circle cx="460" cy="120" r="2"/>
    <circle cx="540" cy="80" r="2"/>
  </g>
  <text x="40" y="304" fill="#eef8ff" font-family="Arial, sans-serif" font-weight="700" font-size="34">Winter Ski Rush (Godot)</text>
</svg>
