<svg width="640" height="360" viewBox="0 0 640 360" fill="none" xmlns="http://www.w3.org/2000/svg">
  <defs>
    <linearGradient id="bg" x1="64" y1="34" x2="565" y2="323" gradientUnits="userSpaceOnUse">
      <stop stop-color="#153549"/>
      <stop offset="0.58" stop-color="#215E7B"/>
      <stop offset="1" stop-color="#0FA39A"/>
    </linearGradient>
    <linearGradient id="card" x1="93" y1="74" x2="534" y2="302" gradientUnits="userSpaceOnUse">
      <stop stop-color="#F7FCFF"/>
      <stop offset="1" stop-color="#DCECF4"/>
    </linearGradient>
  </defs>
  <rect x="24" y="24" width="592" height="312" rx="34" fill="url(#bg)"/>
  <rect x="58" y="58" width="524" height="244" rx="28" fill="url(#card)"/>
  <circle cx="118" cy="103" r="18" fill="#D7EAF2"/>
  <circle cx="522" cy="103" r="14" fill="#D7EAF2"/>
  <rect x="104" y="169" width="74" height="88" rx="12" fill="#184D69"/>
  <rect x="193" y="138" width="78" height="119" rx="12" fill="#215E7B"/>
  <rect x="286" y="110" width="82" height="147" rx="12" fill="#28739A"/>
  <rect x="383" y="89" width="88" height="168" rx="12" fill="#0F8A83"/>
  <path d="M110 136L185 157L249 126L343 141L451 95" stroke="#0B6466" stroke-width="14" stroke-linecap="round" stroke-linejoin="round"/>
  <circle cx="110" cy="136" r="10" fill="#0B6466"/>
  <circle cx="185" cy="157" r="10" fill="#0B6466"/>
  <circle cx="249" cy="126" r="10" fill="#0B6466"/>
  <circle cx="343" cy="141" r="10" fill="#0B6466"/>
  <circle cx="451" cy="95" r="10" fill="#0B6466"/>
  <text x="102" y="286" fill="#17384B" font-family="Apple SD Gothic Neo, Noto Sans KR, sans-serif" font-size="38" font-weight="800">Officetel Watch</text>
</svg>
