<svg xmlns="http://www.w3.org/2000/svg" viewBox="0 0 640 360" role="img" aria-labelledby="title desc">
  <title id="title">Real Estate Watch thumbnail</title>
  <desc id="desc">A warm-toned city and chart illustration for the real estate information app.</desc>
  <defs>
    <linearGradient id="bg" x1="0" y1="0" x2="1" y2="1">
      <stop offset="0%" stop-color="#15313a" />
      <stop offset="55%" stop-color="#203d45" />
      <stop offset="100%" stop-color="#d88d52" />
    </linearGradient>
    <linearGradient id="card" x1="0" y1="0" x2="1" y2="1">
      <stop offset="0%" stop-color="#fff6e8" />
      <stop offset="100%" stop-color="#f1d8b7" />
    </linearGradient>
  </defs>

  <rect width="640" height="360" rx="28" fill="url(#bg)" />
  <circle cx="84" cy="84" r="72" fill="rgba(255,255,255,0.08)" />
  <circle cx="580" cy="54" r="88" fill="rgba(255,255,255,0.10)" />

  <rect x="54" y="92" width="532" height="224" rx="24" fill="url(#card)" opacity="0.96" />
  <rect x="84" y="126" width="180" height="20" rx="10" fill="#d2a46f" opacity="0.78" />
  <rect x="84" y="160" width="126" height="70" rx="18" fill="#ffffff" />
  <rect x="228" y="160" width="126" height="70" rx="18" fill="#ffffff" />
  <rect x="372" y="160" width="126" height="70" rx="18" fill="#ffffff" />

  <rect x="104" y="188" width="18" height="24" rx="6" fill="#cf7c3c" />
  <rect x="132" y="178" width="18" height="34" rx="6" fill="#0f6c6d" />
  <rect x="160" y="170" width="18" height="42" rx="6" fill="#a65424" />

  <path d="M245 206 L280 176 L310 188 L338 162" fill="none" stroke="#0f6c6d" stroke-width="10" stroke-linecap="round" stroke-linejoin="round" />
  <circle cx="245" cy="206" r="7" fill="#0f6c6d" />
  <circle cx="280" cy="176" r="7" fill="#0f6c6d" />
  <circle cx="310" cy="188" r="7" fill="#0f6c6d" />
  <circle cx="338" cy="162" r="7" fill="#0f6c6d" />

  <rect x="392" y="178" width="92" height="16" rx="8" fill="#d2a46f" opacity="0.92" />
  <rect x="392" y="204" width="70" height="12" rx="6" fill="#d7c8b1" />

  <g fill="#254047">
    <rect x="102" y="250" width="22" height="42" rx="4" />
    <rect x="128" y="236" width="28" height="56" rx="4" />
    <rect x="161" y="220" width="34" height="72" rx="4" />
    <rect x="201" y="232" width="24" height="60" rx="4" />
    <rect x="230" y="208" width="42" height="84" rx="4" />
    <rect x="278" y="190" width="36" height="102" rx="4" />
    <rect x="320" y="226" width="22" height="66" rx="4" />
    <rect x="348" y="214" width="28" height="78" rx="4" />
    <rect x="383" y="238" width="26" height="54" rx="4" />
    <rect x="415" y="224" width="34" height="68" rx="4" />
    <rect x="454" y="204" width="38" height="88" rx="4" />
    <rect x="498" y="246" width="26" height="46" rx="4" />
  </g>

  <text x="84" y="80" font-family="Arial, sans-serif" font-size="34" font-weight="700" fill="#fff7ec">
    REAL ESTATE WATCH
  </text>
</svg>
