<?xml version="1.0" encoding="UTF-8"?>
<svg xmlns="http://www.w3.org/2000/svg" viewBox="0 0 640 360" role="img" aria-label="Worm Arena Rush thumbnail">
  <defs>
    <linearGradient id="bg" x1="0" y1="0" x2="1" y2="1">
      <stop offset="0%" stop-color="#0a1326"/>
      <stop offset="45%" stop-color="hsl(115 84% 56%)" stop-opacity="0.75"/>
      <stop offset="100%" stop-color="#121a31"/>
    </linearGradient>
    <radialGradient id="flare" cx="0.18" cy="0.2" r="0.8">
      <stop offset="0%" stop-color="hsl(161 82% 50%)" stop-opacity="0.75"/>
      <stop offset="100%" stop-color="#000000" stop-opacity="0"/>
    </radialGradient>
    <linearGradient id="strip" x1="0" y1="1" x2="1" y2="0">
      <stop offset="0%" stop-color="hsl(235 86% 58%)" stop-opacity="0.32"/>
      <stop offset="100%" stop-color="hsl(161 82% 50%)" stop-opacity="0"/>
    </linearGradient>
  </defs>

  <rect width="640" height="360" fill="url(#bg)"/>
  <rect width="640" height="360" fill="url(#flare)"/>
  <path d="M-20 286 C145 208, 266 330, 420 272 C512 238, 590 204, 680 256 L680 380 L-20 380 Z" fill="url(#strip)"/>

  <g opacity="0.18" fill="#ffffff">
    <circle cx="86" cy="74" r="18"/>
    <circle cx="142" cy="46" r="7"/>
    <circle cx="204" cy="78" r="12"/>
    <circle cx="248" cy="42" r="5"/>
  </g>

  <text x="36" y="126" fill="#ffffff" fill-opacity="0.12" font-size="108" font-family="Arial, sans-serif" font-weight="700">W</text>
  <path d="M424 144 C470 74, 538 74, 574 122 C599 154, 582 201, 542 208 C500 216, 475 196, 468 172"
      fill="none" stroke="hsl(235 86% 58%)" stroke-width="18" stroke-linecap="round"/>

  <rect x="22" y="258" width="596" height="82" rx="12" fill="#050916" fill-opacity="0.44"/>
  <text x="40" y="300" fill="#f4f9ff" font-family="Arial, sans-serif" font-weight="700" font-size="34">Worm Arena Rush</text>
  <text x="40" y="328" fill="#d1ddf6" font-family="Arial, sans-serif" font-size="20">Arcade - Worm</text>
</svg>
