<svg xmlns="http://www.w3.org/2000/svg" viewBox="0 0 1200 630" fill="none">
  <defs>
    <linearGradient id="bg" x1="0" y1="0" x2="1200" y2="630" gradientUnits="userSpaceOnUse">
      <stop stop-color="#102149"/>
      <stop offset="1" stop-color="#1A1338"/>
    </linearGradient>
    <linearGradient id="lane" x1="112" y1="170" x2="1090" y2="480" gradientUnits="userSpaceOnUse">
      <stop stop-color="#22448A" stop-opacity=".62"/>
      <stop offset="1" stop-color="#24316A" stop-opacity=".22"/>
    </linearGradient>
  </defs>

  <rect width="1200" height="630" fill="url(#bg)"/>
  <rect x="88" y="128" width="1024" height="374" rx="24" fill="url(#lane)" stroke="#4662A5" stroke-opacity=".6"/>

  <rect x="128" y="436" width="940" height="22" rx="8" fill="#314A7A"/>
  <rect x="356" y="318" width="250" height="18" rx="8" fill="#3D5895"/>
  <rect x="720" y="262" width="240" height="18" rx="8" fill="#3D5895"/>

  <rect x="300" y="438" width="110" height="22" rx="8" fill="#5EAFF8" fill-opacity=".85"/>
  <rect x="670" y="438" width="110" height="22" rx="8" fill="#FFA85E" fill-opacity=".9"/>

  <rect x="560" y="274" width="30" height="184" rx="12" fill="#6FD9FF" fill-opacity=".4" stroke="#8DE6FF"/>
  <rect x="862" y="202" width="30" height="256" rx="12" fill="#FFAC63" fill-opacity=".45" stroke="#FFC98C"/>

  <rect x="930" y="384" width="42" height="58" rx="6" fill="#2A3E67" stroke="#7DE3FF" stroke-width="3"/>
  <rect x="982" y="328" width="42" height="58" rx="6" fill="#2A3E67" stroke="#FFBE7B" stroke-width="3"/>

  <rect x="206" y="392" width="42" height="54" rx="7" fill="#6DDFFF"/>
  <rect x="260" y="392" width="42" height="54" rx="7" fill="#FF9A4D"/>
  <rect x="216" y="404" width="22" height="10" rx="5" fill="#D7F7FF"/>
  <rect x="270" y="404" width="22" height="10" rx="5" fill="#FFD6AE"/>

  <circle cx="1050" cy="146" r="9" fill="#91B8FF"/>
  <circle cx="1028" cy="176" r="6" fill="#91B8FF"/>
  <circle cx="168" cy="146" r="7" fill="#78F1C2"/>
  <circle cx="190" cy="176" r="5" fill="#78F1C2"/>

  <text x="128" y="96" fill="#E7F3FF" font-family="Arial, sans-serif" font-size="46" font-weight="700">Twin Temple Escape</text>
</svg>
