<svg width="640" height="360" viewBox="0 0 640 360" fill="none" xmlns="http://www.w3.org/2000/svg">
  <defs>
    <linearGradient id="bg" x1="0" y1="0" x2="640" y2="360" gradientUnits="userSpaceOnUse">
      <stop stop-color="#1A2640"/>
      <stop offset="1" stop-color="#0B1220"/>
    </linearGradient>
    <linearGradient id="lane" x1="0" y1="0" x2="1" y2="0">
      <stop stop-color="#66E5A8"/>
      <stop offset="1" stop-color="#FF8BA4"/>
    </linearGradient>
  </defs>
  <rect width="640" height="360" rx="20" fill="url(#bg)"/>
  <g opacity="0.25" fill="#31496A">
    <rect x="18" y="22" width="604" height="316" rx="12"/>
    <path d="M18 82H622M18 142H622M18 202H622M18 262H622" stroke="#56729D" stroke-width="2"/>
    <path d="M98 22V338M178 22V338M258 22V338M338 22V338M418 22V338M498 22V338" stroke="#56729D" stroke-width="2"/>
  </g>
  <path d="M58 180H198V120H318V240H448V160H582" stroke="url(#lane)" stroke-width="18" stroke-linecap="round" stroke-linejoin="round"/>
  <circle cx="56" cy="180" r="17" fill="#7FF7C7"/>
  <circle cx="584" cy="160" r="19" fill="#FF98AE"/>
  <g>
    <rect x="160" y="148" width="26" height="26" rx="6" fill="#9BD7FF"/>
    <rect x="220" y="104" width="26" height="26" rx="6" fill="#9BD7FF"/>
    <rect x="280" y="182" width="26" height="26" rx="6" fill="#B5F2B1"/>
    <rect x="352" y="216" width="26" height="26" rx="6" fill="#B5F2B1"/>
    <rect x="414" y="118" width="26" height="26" rx="6" fill="#E0BCFF"/>
  </g>
  <g fill="#F7B0C7">
    <circle cx="332" cy="210" r="9"/>
    <circle cx="374" cy="218" r="8"/>
    <circle cx="404" cy="198" r="8"/>
  </g>
  <rect x="20" y="20" width="300" height="44" rx="12" fill="#0E1B33" fill-opacity="0.74"/>
  <text x="36" y="49" fill="#F0CA77" font-size="24" font-family="Arial, sans-serif" font-weight="700">Sunken Sixway Defense</text>
</svg>
